<svg width="878" height="614" viewBox="0 0 878 614" fill="none" xmlns="http://www.w3.org/2000/svg">
<path opacity="0.5" fill-rule="evenodd" clip-rule="evenodd" d="M867.392 613.579H0.586483C-10.3884 465.777 135.329 372.642 214.497 322.041C224.782 315.468 233.943 309.612 241.492 304.448C274.58 281.811 299.116 232.38 325.211 179.807C373.287 82.9508 426.654 -24.5667 548.543 5.16949C655.706 31.3812 816.764 142.911 877.317 309.76V586.876C874.313 595.708 871.008 604.61 867.392 613.579Z" fill="url(#paint0_linear)"/>
<path d="M684.322 207.912C741.151 305.014 708.499 429.796 611.406 486.618C514.313 543.444 389.529 510.806 332.7 413.702C305.393 367.048 298.751 313.999 309.992 265.161C309.992 265.161 310.001 265.156 310.005 265.141L310.004 265.119C310.055 264.92 310.269 264.131 310.524 262.897C311.639 257.53 312.187 246.805 305.099 239.824C296.141 230.985 291.444 232.06 289.887 226.193C287.216 216.134 304.194 212.174 308.195 225.87C312.115 239.286 321.019 230.663 321.386 230.302L321.391 230.288C337.97 191.683 366.589 157.848 405.621 135.005C502.714 78.1815 627.498 110.82 684.322 207.912Z" fill="#DBCCB6"/>
<path d="M360.238 171.137C360.238 171.127 360.248 171.116 360.27 171.105L360.26 171.126C360.248 171.137 360.238 171.137 360.238 171.137Z" fill="#DBCCB6"/>
<path d="M361.841 169.451C360.997 170.388 360.414 170.961 360.269 171.106C360.79 170.554 361.309 170.003 361.841 169.451Z" fill="#DBCCB6"/>
<path d="M691.426 48.9764H597.251C597.251 48.9764 601.385 22.4126 613.037 23.4471C616.257 23.7328 618.452 27.0033 619.889 30.5087C620.775 32.6723 623.869 32.5174 624.511 30.2737C627.591 19.4752 633.893 2.99994 643.662 2.99994C653.762 2.99994 654.097 21.8523 653.365 33.3307C653.255 35.0624 655.497 35.8309 656.468 34.3971C659.133 30.4768 663.023 26.7081 667.753 27.802C671.792 28.734 673.583 32.9211 674.319 37.3293C674.542 38.6547 676.378 38.8259 676.85 37.5694C679.309 31.0302 683.674 21.5219 688.307 21.3222C695.388 21.021 691.426 48.9764 691.426 48.9764Z" fill="#DBCCB6"/>
<path d="M298.165 190.354H203.991C203.991 190.354 208.125 163.789 219.775 164.823C222.996 165.108 225.192 168.38 226.629 171.885C227.515 174.049 230.609 173.895 231.251 171.65C234.332 160.853 240.634 144.378 250.402 144.378C260.503 144.378 260.837 163.229 260.105 174.709C259.996 176.439 262.238 177.207 263.209 175.775C265.875 171.854 269.764 168.086 274.495 169.179C278.534 170.111 280.324 174.301 281.063 178.709C281.284 180.033 283.119 180.204 283.592 178.947C286.051 172.407 290.416 162.899 295.049 162.7C302.127 162.397 298.165 190.354 298.165 190.354Z" fill="#DBCCB6"/>
<path d="M290.452 46.4047C290.452 46.4047 294.127 22.8102 304.473 23.7293C307.334 23.9841 309.283 26.887 310.559 30.0017C311.345 31.9209 314.094 31.7867 314.663 29.7917C317.4 20.205 323 5.57062 331.674 5.57062C340.647 5.57062 340.943 22.3144 340.292 32.5096C340.194 34.0459 342.184 34.7284 343.049 33.4546C345.417 29.9716 348.871 26.628 353.07 27.5962C361.252 29.4853 359.05 46.4047 359.05 46.4047H290.452Z" fill="#DBCCB6"/>
<path d="M203 331.23C203 331.23 206.675 307.635 217.019 308.554C219.882 308.809 221.83 311.71 223.106 314.825C223.892 316.744 226.64 316.61 227.211 314.617C229.948 305.028 235.546 290.396 244.221 290.396C253.194 290.396 253.491 307.138 252.838 317.333C252.741 318.869 254.731 319.551 255.597 318.279C257.963 314.797 261.418 311.451 265.618 312.42C273.799 314.308 271.596 331.229 271.596 331.229H203V331.23Z" fill="#DBCCB6"/>
<path d="M719.134 179.509C719.134 179.509 722.807 155.913 733.152 156.835C736.016 157.088 737.962 159.99 739.239 163.106C740.025 165.027 742.773 164.891 743.343 162.896C746.081 153.308 751.679 138.675 760.355 138.675C769.328 138.675 769.624 155.417 768.972 165.615C768.875 167.151 770.865 167.832 771.731 166.558C774.097 163.075 777.551 159.732 781.751 160.702C789.933 162.589 787.73 179.509 787.73 179.509H719.134V179.509Z" fill="#DBCCB6"/>
<path d="M501.721 80.0792C501.721 80.0792 470.174 80.4915 471.796 93.5991C473.416 106.706 491.642 88.0342 508.816 92.5827C525.989 97.1329 528.576 78.9311 501.721 80.0792Z" fill="#DBCCB6"/>
<path d="M613.792 102.754C612.58 100.56 610.227 99.2432 607.725 99.1141C602.759 98.8576 593.344 99.9351 593.28 111.788C593.201 126.323 619.627 113.306 613.792 102.754Z" fill="#DBCCB6"/>
<path d="M541.456 90.8252C541.29 89.6384 540.465 88.6496 539.371 88.1641C537.198 87.2011 532.813 86.0736 530.76 91.3537C528.243 97.8257 542.259 96.5296 541.456 90.8252Z" fill="#DBCCB6"/>
<path d="M741.493 306.658C741.493 306.658 744.152 338.093 730.947 337.756C717.745 337.418 734.554 317.463 728.356 300.813C722.159 284.164 740.024 279.817 741.493 306.658Z" fill="#DBCCB6"/>
<path d="M727.81 266.323C729.006 266.373 730.07 267.098 730.661 268.139C731.83 270.208 733.379 274.462 728.325 277.019C722.128 280.153 722.054 266.081 727.81 266.323Z" fill="#DBCCB6"/>
<path d="M648.177 496.998C648.177 496.998 676.138 482.384 668.772 471.423C661.406 460.46 653.578 485.349 636.201 489.044C618.823 492.74 624.734 510.151 648.177 496.998Z" fill="#DBCCB6"/>
<path d="M400.212 264.014C400.706 265.107 400.927 265.738 400.927 265.738C400.927 265.738 400.774 265.996 400.472 266.473C396.689 272.432 369.684 312.479 331.146 305.741C330.562 305.639 329.976 305.528 329.388 305.403C329.12 305.348 328.852 305.293 328.587 305.232C316.646 302.629 305.831 298.11 296.46 292.97C295.734 292.571 295.02 292.172 294.313 291.766C276.634 281.665 264.447 269.619 260.074 264.969C258.901 263.718 258.29 263.001 258.29 263.001C258.528 262.852 258.763 262.704 258.998 262.558C279.322 249.866 296.89 241.74 312.044 236.975C312.89 236.708 313.73 236.452 314.564 236.206C331.763 231.128 345.76 230.438 357.082 232.259C358.188 232.437 359.27 232.64 360.329 232.862C386.797 238.486 397.519 258.072 400.212 264.014Z" fill="#7D9F21"/>
<path d="M400.212 264.014C400.706 265.107 400.927 265.738 400.927 265.738C400.927 265.738 400.774 265.996 400.472 266.473C388.887 265.5 373.648 264.93 357.27 264.628C356.327 264.611 355.377 264.594 354.423 264.578C342.87 264.389 330.828 264.324 319.165 264.338C318.127 264.339 317.093 264.341 316.061 264.344C293.601 264.395 272.845 264.72 260.074 264.969C258.901 263.718 258.29 263.001 258.29 263.001C258.528 262.852 258.763 262.704 258.998 262.558C274.71 262.249 303.651 261.799 332.869 261.933C333.931 261.938 334.987 261.943 336.048 261.949C349.925 262.034 363.756 262.256 376.156 262.696C377.145 262.732 378.123 262.768 379.092 262.804C386.886 263.111 394.048 263.506 400.212 264.014Z" fill="#A6D406"/>
<path d="M319.54 263.869L319.164 264.339L296.459 292.972C295.733 292.572 295.019 292.174 294.313 291.768L316.06 264.345L317.636 262.357L319.54 263.869Z" fill="#A6D406"/>
<path d="M336.398 262.369L334.53 263.925L332.869 261.934L312.043 236.976C312.89 236.709 313.73 236.453 314.564 236.207L336.048 261.949L336.398 262.369Z" fill="#A6D406"/>
<path d="M357.641 264.043L357.27 264.629L331.146 305.742C330.562 305.64 329.976 305.529 329.388 305.404C329.12 305.349 328.852 305.294 328.587 305.233L354.423 264.579L355.591 262.74L357.641 264.043Z" fill="#A6D406"/>
<path d="M360.329 232.864L379.092 262.806L379.223 263.017L377.163 264.306L376.156 262.698L357.082 232.261C358.188 232.439 359.27 232.642 360.329 232.864Z" fill="#A6D406"/>
<path d="M413.108 172.843C413.289 175.174 413.398 177.392 413.469 179.428C413.685 185.945 413.431 190.602 413.414 190.976C413.413 190.988 413.407 190.991 413.407 190.991L368.74 226.252C368.74 226.252 368.732 226.256 368.722 226.255C368.355 226.183 363.764 225.35 357.476 223.628C355.51 223.087 353.382 222.465 351.156 221.748C339.227 217.9 324.728 211.432 319.682 201.778C318.126 198.814 317.475 196.421 317.469 194.476C317.474 193.476 317.632 192.597 317.939 191.812C320.539 185.193 333.121 185.931 335.291 183.877C338.218 181.103 320.661 169.408 304.525 164.014C289.439 158.968 273.964 148.524 278.37 136.879C278.531 136.46 278.708 136.048 278.922 135.63C279.107 135.242 279.32 134.863 279.564 134.47C287.273 121.877 302.525 133.54 305.525 127.915C308.47 122.382 257.861 86.6427 279.487 69.4238C279.817 69.1518 280.186 68.8816 280.559 68.6156C280.905 68.3135 281.248 68.0218 281.594 67.7593C303.36 50.7289 326.37 108.252 332.436 106.672C338.605 105.062 330.801 87.518 344.839 82.9428C345.277 82.7982 345.696 82.6786 346.118 82.5873C346.575 82.478 347.016 82.4014 347.462 82.3403C359.812 80.7593 366.374 98.2347 367.786 114.077C369.288 131.024 376.585 150.818 379.959 148.618C382.466 146.98 384.663 134.575 391.704 133.583C392.538 133.469 393.431 133.516 394.405 133.743C396.295 134.202 398.472 135.391 400.994 137.595C409.21 144.744 412.134 160.347 413.108 172.843Z" fill="#7D9F21"/>
<path d="M281.593 67.7557L392.13 207.785L390.019 209.453L279.483 69.4237C279.815 69.1491 280.185 68.8798 280.559 68.6181C280.903 68.3134 281.244 68.0217 281.593 67.7557Z" fill="#A6D406"/>
<path d="M344.666 148.194L344.415 149.512L344.158 150.835L343.67 150.738L277.953 138.179L278.366 136.88C278.529 136.466 278.706 136.051 278.92 135.629L341.127 147.516L343.143 147.899L344.666 148.194Z" fill="#A6D406"/>
<path d="M389.969 205.584L389.718 206.901L389.462 208.225L388.974 208.129L317.466 194.471C317.469 193.476 317.63 192.594 317.939 191.814L386.432 204.906L388.447 205.289L389.969 205.584Z" fill="#A6D406"/>
<path d="M348.818 82.2396L345.776 149.064L345.755 149.573L344.415 149.512L343.069 149.454L343.142 147.899L343.232 145.842L346.113 82.5882C346.573 82.4772 347.016 82.4005 347.458 82.3369L348.818 82.2396Z" fill="#A6D406"/>
<path d="M394.399 133.744L391.081 206.455L391.058 206.963L389.718 206.901L388.372 206.844L388.447 205.289L388.536 203.232L391.704 133.585C392.535 133.467 393.43 133.514 394.399 133.744Z" fill="#A6D406"/>
<path d="M613.456 459.75C611.147 459.243 608.97 458.702 606.979 458.174C600.61 456.481 596.177 454.873 595.818 454.748C595.808 454.743 595.806 454.737 595.806 454.737L574.73 401.211C574.73 401.211 574.728 401.203 574.731 401.195C574.908 400.859 577.054 396.659 580.558 391.079C581.655 389.334 582.88 387.454 584.224 385.511C591.433 375.089 601.926 362.948 612.741 360.887C616.066 360.245 618.571 360.314 620.457 360.876C621.423 361.172 622.228 361.583 622.897 362.109C628.543 366.557 624.153 378.518 625.508 381.219C627.338 384.862 643.782 371.285 653.716 357.246C663.007 344.121 677.633 332.197 687.614 339.86C687.973 340.14 688.32 340.43 688.663 340.761C688.985 341.054 689.29 341.371 689.599 341.721C699.533 352.859 683.79 364.213 688.36 368.759C692.854 373.223 742.221 334.686 752.571 360.644C752.736 361.043 752.891 361.478 753.037 361.919C753.23 362.34 753.41 362.759 753.564 363.167C763.689 389.207 701.298 394.673 701.056 401.004C700.813 407.445 720.071 405.017 720.397 419.937C720.411 420.405 720.404 420.846 720.368 421.279C720.341 421.754 720.286 422.203 720.214 422.652C718.138 435.065 699.308 436.313 683.566 433.054C666.726 429.556 645.439 430.836 646.584 434.743C647.435 437.649 658.798 443.397 657.701 450.5C657.57 451.343 657.262 452.193 656.757 453.069C655.761 454.764 653.975 456.522 651.107 458.319C641.788 464.186 625.834 462.456 613.456 459.75Z" fill="#7D9F21"/>
<path d="M753.566 363.173L585.769 429.244L584.772 426.712L752.571 360.642C752.738 361.043 752.891 361.481 753.035 361.919C753.229 362.342 753.412 362.755 753.566 363.173Z" fill="#A6D406"/>
<path d="M657.301 400.714L656.1 400.088L654.895 399.452L655.129 399.008L686.478 339.08L687.616 339.856C687.969 340.136 688.317 340.428 688.662 340.759L658.991 397.487L658.03 399.328L657.301 400.714Z" fill="#A6D406"/>
<path d="M588.53 427.794L587.328 427.166L586.123 426.533L586.357 426.089L620.46 360.877C621.422 361.17 622.229 361.584 622.894 362.11L590.218 424.569L589.26 426.407L588.53 427.794Z" fill="#A6D406"/>
<path d="M719.914 423.998L656.134 401.535L655.649 401.367L656.101 400.089L656.548 398.801L658.032 399.328L659.996 400.015L720.367 421.279C720.342 421.757 720.285 422.205 720.216 422.652L719.914 423.998Z" fill="#A6D406"/>
<path d="M656.761 453.064L587.364 428.616L586.878 428.447L587.329 427.167L587.777 425.882L589.261 426.407L591.225 427.095L657.701 450.503C657.572 451.342 657.265 452.194 656.761 453.064Z" fill="#A6D406"/>
<path d="M434.444 422.767C434.678 424.452 434.728 425.397 434.728 425.397C434.728 425.397 434.415 425.687 433.814 426.215C426.288 432.796 373.559 476.402 323.89 451.817C323.139 451.447 322.385 451.059 321.638 450.655C321.295 450.472 320.955 450.288 320.616 450.103C305.437 441.782 292.549 431.313 281.874 420.575C281.047 419.744 280.234 418.915 279.437 418.081C259.46 397.277 247.722 376.031 243.643 367.961C242.547 365.791 242.007 364.574 242.007 364.574C242.386 364.466 242.767 364.36 243.145 364.254C275.842 355.144 302.968 351.139 325.465 350.73C326.724 350.706 327.969 350.693 329.2 350.693C354.603 350.677 373.898 355.344 388.551 362.354C389.985 363.04 391.375 363.747 392.724 364.473C426.436 382.711 433.165 413.616 434.444 422.767Z" fill="#7D9F21"/>
<path d="M434.444 422.767C434.678 424.451 434.728 425.397 434.728 425.397C434.728 425.397 434.415 425.687 433.814 426.215C418.461 420.252 397.982 413.38 375.848 406.411C374.573 406.01 373.289 405.608 372.002 405.205C356.377 400.323 340.044 395.413 324.188 390.762C322.776 390.348 321.37 389.935 319.968 389.527C289.429 380.603 261.093 372.739 243.643 367.961C242.547 365.791 242.007 364.574 242.007 364.574C242.387 364.466 242.767 364.36 243.145 364.254C264.618 370.128 304.123 381.099 343.771 392.981C345.211 393.409 346.646 393.844 348.083 394.275L348.084 394.272C366.905 399.946 385.61 405.785 402.284 411.347C403.614 411.791 404.929 412.231 406.23 412.669C416.701 416.205 426.273 419.611 434.444 422.767Z" fill="#A6D406"/>
<path d="M324.886 390.275L324.189 390.762L281.875 420.577C281.048 419.745 280.235 418.917 279.438 418.083L319.968 389.527L322.905 387.458L324.886 390.275Z" fill="#A6D406"/>
<path d="M348.393 394.986L345.232 396.353L343.772 392.982L325.465 350.731C326.724 350.707 327.969 350.693 329.2 350.693L348.084 394.276L348.085 394.273L348.393 394.986Z" fill="#A6D406"/>
<path d="M376.588 405.765L375.848 406.411L323.89 451.817C323.139 451.448 322.385 451.06 321.638 450.655C321.296 450.473 320.955 450.289 320.617 450.104L372.002 405.205L374.325 403.175L376.588 405.765Z" fill="#A6D406"/>
<path d="M392.725 364.474L406.232 412.67L406.325 413.008L403.011 413.935L402.286 411.348L388.552 362.354C389.985 363.041 391.375 363.748 392.725 364.474Z" fill="#A6D406"/>
<path d="M714.46 128.897C714.234 129.98 713.998 131.068 713.751 132.162C710.561 146.31 705.438 161.37 697.366 175.849C697.183 176.171 697.002 176.495 696.821 176.817C696.416 177.527 696.007 178.224 695.583 178.907C667.818 224.144 602.855 215.642 593.377 214.135C592.62 214.014 592.216 213.937 592.216 213.937C592.216 213.937 591.773 213.144 591.109 211.659C587.481 203.586 577.196 175.088 595.255 143.122C595.977 141.845 596.741 140.564 597.557 139.28C605.873 126.129 619.148 112.511 639.764 99.5825C640.763 98.9568 641.78 98.3294 642.813 97.7071C661.271 86.5799 685.312 76.0103 716.479 66.7446C716.838 66.6379 717.2 66.532 717.563 66.4236C717.563 66.4236 717.741 67.6853 717.959 70.0064C718.763 78.6318 720.064 101.847 714.46 128.897Z" fill="#7D9F21"/>
<path d="M717.959 70.0073C706.235 82.7724 687.26 103.585 667.037 126.38C666.106 127.428 665.173 128.478 664.24 129.535C653.751 141.384 643 153.687 632.815 165.604C631.977 166.588 631.14 167.57 630.307 168.547C615.904 185.472 602.793 201.479 593.377 214.138C592.62 214.016 592.216 213.94 592.216 213.94C592.216 213.94 591.773 213.147 591.109 211.662C596.125 204.939 602.158 197.301 608.851 189.102C609.679 188.083 610.523 187.055 611.376 186.016C622.068 173.012 634.267 158.744 646.644 144.557C647.591 143.474 648.538 142.393 649.486 141.307C675.595 111.474 702.055 82.4462 716.48 66.7481C716.838 66.6414 717.201 66.5355 717.564 66.4271C717.563 66.4245 717.741 67.6862 717.959 70.0073Z" fill="#A6D406"/>
<path d="M714.46 128.897C714.234 129.979 713.998 131.068 713.751 132.162L664.241 129.533L663.425 129.491L663.6 126.196L667.038 126.378L714.46 128.897Z" fill="#A6D406"/>
<path d="M650.018 144.788L646.758 145.288L646.645 144.554L639.765 99.5825C640.764 98.9568 641.781 98.3294 642.814 97.7072L649.486 141.305L650.018 144.788Z" fill="#A6D406"/>
<path d="M697.365 175.85C697.182 176.172 697.001 176.496 696.82 176.817C696.415 177.528 696.006 178.225 695.582 178.908L630.306 168.545L629.375 168.397L629.894 165.139L632.815 165.602L697.365 175.85Z" fill="#A6D406"/>
<path d="M612.107 188.482L608.944 189.417L608.852 189.099L595.256 143.122C595.978 141.845 596.742 140.564 597.558 139.28L611.377 186.014L612.107 188.482Z" fill="#A6D406"/>
<path d="M465.599 154.209C427.079 106.276 408.603 69.5134 412.07 47.3811C412.211 46.474 411.598 45.6228 410.7 45.4808C409.801 45.3379 408.958 45.9559 408.815 46.8612C406.674 60.536 412.191 79.1311 425.211 102.128C434.751 118.981 448.326 138.233 465.599 159.465V154.209Z" fill="#A6D406"/>
<path d="M415.298 80.651C415.298 80.651 404.126 88.766 390.75 68.3903C390.751 68.3903 411.345 60.8596 415.298 80.651Z" fill="#7D9F21"/>
<path d="M421.656 91.5149C421.656 91.5149 413.002 80.7112 432.422 66.1052C432.422 66.1052 441.02 86.4311 421.656 91.5149Z" fill="#7D9F21"/>
<path d="M410.308 57.5298C410.308 57.5298 398.581 50.2556 412.063 29.9513C412.062 29.9513 426.885 46.2218 410.308 57.5298Z" fill="#7D9F21"/>
<path d="M433.776 113.771C433.776 113.771 425.982 125.22 406.566 110.611C406.566 110.611 423.42 96.4962 433.776 113.771Z" fill="#7D9F21"/>
<path d="M441.913 123.85C441.913 123.85 431.54 114.719 448.163 96.9429C448.163 96.9429 460.113 115.463 441.913 123.85Z" fill="#7D9F21"/>
<path d="M451.695 138.767C451.695 138.767 444.118 150.364 424.43 136.128C424.43 136.128 441.016 121.693 451.695 138.767Z" fill="#7D9F21"/>
<path d="M741.046 178.346C740.217 177.967 739.239 178.337 738.865 179.172C729.628 199.716 693.747 220.298 634.743 239.041L633.422 242.937C659.262 234.833 680.96 226.329 698.036 217.595C721.451 205.617 736.195 193.153 741.866 180.547C742.239 179.711 741.874 178.725 741.046 178.346Z" fill="#A6D406"/>
<path d="M718.026 205.162C718.026 205.162 722.929 218.141 745.209 208.55C745.209 208.55 732.119 190.831 718.026 205.162Z" fill="#7D9F21"/>
<path d="M706.793 210.707C706.793 210.707 719.909 206.489 711.658 183.512C711.659 183.511 693.397 195.711 706.793 210.707Z" fill="#7D9F21"/>
<path d="M734.801 188.626C734.801 188.626 748.56 189.061 748.375 164.622C748.376 164.623 727.126 169.981 734.801 188.626Z" fill="#7D9F21"/>
<path d="M684.535 222.562C684.535 222.562 684.799 236.448 708.98 235.028C708.98 235.028 702.601 213.885 684.535 222.562Z" fill="#7D9F21"/>
<path d="M672.244 226.462C672.244 226.462 685.886 224.595 681.698 200.525C681.698 200.525 661.619 209.355 672.244 226.462Z" fill="#7D9F21"/>
<path d="M655.941 233.487C655.941 233.487 655.943 247.377 680.148 246.419C680.148 246.419 674.167 225.157 655.941 233.487Z" fill="#7D9F21"/>
<path d="M506.99 539.102C601.212 539.102 677.594 534.248 677.594 528.26C677.594 522.273 601.212 517.419 506.99 517.419C412.768 517.419 336.385 522.273 336.385 528.26C336.385 534.248 412.768 539.102 506.99 539.102Z" fill="#E4D6BC"/>
<path d="M603.393 528.286H561.69V180.203H657.756L626.415 507.109C625.264 519.123 615.301 528.286 603.393 528.286Z" fill="#002E49"/>
<path d="M667.121 180.199H346.993C343.479 180.199 340.63 177.349 340.63 173.835V158.2C340.63 154.686 343.479 151.838 346.993 151.838H667.121C670.636 151.838 673.485 154.687 673.485 158.2V173.835C673.484 177.349 670.636 180.199 667.121 180.199Z" fill="#1D5B79"/>
<path d="M624.384 180.201L623.598 189.039L593.437 528.286H406.874C394.684 528.286 384.512 518.978 383.433 506.837L357.029 209.851L354.394 180.201H624.384Z" fill="#0D415D"/>
<path d="M624.384 180.201L623.176 192.011L356.383 200.86L354.394 180.201H624.384Z" fill="#002E49"/>
<path d="M422.841 340.369L412.781 334.635L445.273 334.134L462.074 362.903L452.013 357.47L438.562 381.184C435.263 386.998 433.37 393.526 433.214 400.208C433.208 400.461 433.204 400.717 433.204 400.977L414.896 369.34C414.894 369.339 406.946 355.66 422.841 340.369Z" fill="#FFFBF4"/>
<path d="M512.747 417.805L512.556 429.38L496.491 401.134L513.64 372.571L513.714 384.005L540.975 384.395C547.658 384.493 554.292 383.015 560.226 379.936C560.452 379.819 560.678 379.701 560.906 379.577L541.97 410.841C541.97 410.841 533.795 424.388 512.747 417.805Z" fill="#FFFBF4"/>
<path d="M536.105 301.507L545.086 296.289L529.2 324.636L495.887 324.713L505.636 318.742L492.451 296.29C492.451 296.29 497.375 283.606 510.986 280.968C525.01 278.25 536.105 301.507 536.105 301.507Z" fill="#ECE4DA"/>
<path d="M483.498 383.674V417.32H454.075C454.075 417.32 441.195 417.024 439.137 402.385C437.427 390.224 444.267 383.674 444.267 383.674H483.498V383.674Z" fill="#ECE4DA"/>
<path d="M520.764 345.561L549.714 328.418L564.705 353.735C564.705 353.735 568.324 366.301 556.54 375.223C546.912 382.512 540.755 379.318 540.755 379.318L520.764 345.561Z" fill="#ECE4DA"/>
<path d="M437.426 313.612L452.566 287.105C452.566 287.105 457.394 279.108 464.939 279.108H500.498C500.498 279.108 493.154 284.691 485.761 296.36C478.236 308.237 466.749 330.107 466.749 330.107L437.426 313.612Z" fill="#FFFBF4"/>
<path d="M691.732 558.092C731.778 558.115 764.244 554.166 764.247 549.273C764.25 544.379 731.788 540.394 691.742 540.372C651.695 540.349 619.229 544.298 619.227 549.191C619.224 554.085 651.686 558.07 691.732 558.092Z" fill="#E4D6BC"/>
<path d="M674.201 301.095C674.201 301.095 659.137 315.823 652.193 320.731C652.193 320.731 647.87 319.733 638.857 317.175V330.68C644.635 332.982 650.428 334.866 654.14 334.988C654.14 334.988 667.609 326.897 677.723 316.251L674.201 301.095Z" fill="#0D415D"/>
<path d="M676.532 540.3L666.222 540.292L659.702 461.012L667.119 388.299L694.986 385.704L678.228 468.589C682.939 487.746 678.979 512.254 676.532 540.3Z" fill="#002E49"/>
<path d="M676.832 539.68C676.832 539.68 677.453 540.545 677.453 542.338C677.451 544.131 677.271 550.311 677.271 550.311L647.092 550.295C647.092 550.295 646.984 545.593 650.81 543.088C654.633 540.58 660.507 543.04 666.125 539.101C666.124 539.101 667.627 540.477 676.832 539.68Z" fill="#95465B"/>
<path d="M733.002 539.733C731.02 518.244 721.676 474.993 715.706 465.666L715.694 384.587L688.458 391.026L696.554 465.826L722.562 539.133C725.668 540.873 729.276 540.545 733.002 539.733Z" fill="#0D415D"/>
<path d="M733.002 539.733C733.002 539.733 733.69 540.649 733.689 542.441C733.688 544.231 733.684 550.343 733.684 550.343L703.532 550.327C703.532 550.327 703.424 545.625 707.247 543.12C711.073 540.612 716.947 543.074 722.563 539.133C722.564 539.133 723.796 540.531 733.002 539.733Z" fill="#95465B"/>
<path d="M663.887 390.881C665.215 393.12 669.752 394.831 673.654 395.783C673.922 395.849 674.186 395.909 674.448 395.968C675.128 396.122 675.776 396.245 676.378 396.348C682.779 397.419 689.225 397.895 695.706 397.889C696.907 397.887 698.179 397.802 699.488 397.639C699.752 397.607 700.017 397.57 700.284 397.533C707.028 396.546 714.525 393.613 718.282 389.848L712.81 365.3L723.28 304.272L709.273 299.467L708.521 299.209L705.377 298.131L701.793 296.904L688.063 299.253L685.652 299.572L684.801 299.688L674.2 301.101L663.887 390.881Z" fill="#1D5B79"/>
<path d="M678.205 255.785C678.205 255.785 674.472 257.616 674.92 263.942C675.367 270.267 677.668 271.229 677.668 271.229C677.668 271.229 683.022 258.033 678.205 255.785Z" fill="#002E49"/>
<path d="M690.366 286.627L689.809 294.483L689.552 299.193C693.622 303.089 701.51 298.335 701.51 298.335L703.765 286.876C701.866 285.209 696.36 285.692 693.026 286.174C691.455 286.402 690.366 286.627 690.366 286.627Z" fill="#FBB28F"/>
<path d="M690.366 286.627L689.809 294.483C695.241 293.936 700.592 287.189 700.592 287.189L693.026 286.172C691.456 286.402 690.366 286.627 690.366 286.627Z" fill="#ED867A"/>
<path d="M678.498 259.017C678.498 259.017 670.583 254.028 673.931 247.435C677.28 240.841 686.751 247.052 696.342 248.79C710.812 251.411 714.053 257.377 712.676 265.225C711.299 273.074 710.034 283.667 705.952 287.16C701.871 290.653 700.138 284.76 698.916 279.584C697.698 274.411 688.203 257.838 678.498 259.017Z" fill="#002E49"/>
<path d="M676.881 265.636C676.853 265.904 676.822 266.176 676.794 266.45C676.32 271.37 676.404 277.435 676.619 282.388C676.846 287.641 681.369 291.674 686.614 291.294C692.931 290.836 700.766 289.917 704.521 288.082C705.663 287.526 706.423 286.884 706.655 286.142C707.191 284.415 707.669 282.026 708.082 279.414C709.34 271.496 710.025 261.504 710.025 261.504C703.795 251.367 682.709 252.323 678.709 258.648C677.797 260.096 677.221 262.615 676.881 265.636Z" fill="#FBB28F"/>
<path d="M709.048 272.134C709.048 272.134 706.025 269.568 702.762 273.045L700.602 272.771C700.602 272.771 701.292 268.35 700.549 265.812C699.808 263.272 695.666 262.807 695.41 259.891C695.41 259.891 685.16 262.528 678.498 259.018C671.837 255.507 694.295 246.523 703.689 253.487C713.081 260.45 711.579 264.783 709.048 272.134Z" fill="#002E49"/>
<path d="M704.522 288.081C705.665 287.525 706.424 286.883 706.656 286.141C707.192 284.414 707.67 282.025 708.083 279.413L702.16 282.461C702.16 282.461 701.594 286.328 704.522 288.081Z" fill="#002E49"/>
<path d="M702.761 273.045C702.761 273.045 706.578 269.462 709.048 272.134C711.769 275.08 708.33 283.449 702.16 282.464L702.761 273.045Z" fill="#FBB28F"/>
<path d="M654.912 371.441L621.05 377.354C618.042 377.877 615.178 375.863 614.661 372.856L609.959 345.528L608.285 335.805L605.584 320.372L602.124 300.583C601.307 295.93 604.418 291.497 609.072 290.684L609.368 290.631C612.472 290.087 614.546 287.135 614.002 284.03L608.715 253.83L624.975 250.984L630.262 281.188C630.806 284.289 633.759 286.362 636.86 285.818C639.19 285.413 641.46 285.981 643.253 287.241C645.047 288.497 646.355 290.44 646.763 292.769L650.167 312.219L652.927 327.989L654.723 338.278L659.4 365.053C659.923 368.056 657.914 370.913 654.912 371.441Z" fill="#FFFBF4"/>
<path d="M654.632 337.462L609.96 345.528L608.285 335.806L605.585 320.373L650.166 312.22L652.926 327.99L654.632 337.462Z" fill="#A6D406"/>
<path d="M608.298 335.879L606.157 323.633L650.775 315.288L652.896 327.822L653.989 334.251L609.398 342.27L608.298 335.879Z" fill="#7D9F21"/>
<path d="M624.975 250.984L626.214 258.068C620.908 259.673 615.494 260.631 609.962 260.948L608.715 253.83L624.975 250.984Z" fill="#ECE4DA"/>
<path d="M626.909 253.182C620.549 255.244 614.028 256.385 607.348 256.606L606.14 249.708L625.701 246.285L626.909 253.182Z" fill="#A6D406"/>
<path d="M723.279 304.272C723.279 304.272 729.305 314.124 724.122 325.336C718.94 336.549 693.553 352.495 693.553 352.495L645.267 357.889L643.247 349.34C643.247 349.34 658.895 345.375 663.887 344.373C668.879 343.369 680.838 340.141 689.313 339.082C689.313 339.081 712.127 312.102 723.279 304.272Z" fill="#0D415D"/>
<path d="M643.246 349.339C643.246 349.339 640.303 346.615 637.734 345.831C635.165 345.045 632.47 345.686 629.902 345.781C627.337 345.873 628.121 347.863 630.474 348.388C632.824 348.917 635.365 349.138 634.817 349.891C634.271 350.643 623.783 352.079 621.843 354.149C619.901 356.215 629.048 354.579 629.048 354.579C629.048 354.579 620.446 356.941 620.061 358.584C619.674 360.228 628.696 357.668 628.696 357.668C628.696 357.668 622.144 359.614 622.669 361.021C623.046 362.03 628.382 360.622 630.98 359.867C630.98 359.867 624.575 361.95 625.506 362.784C626.691 363.848 638.681 362.148 645.266 357.888C645.055 354.957 644.056 352.28 643.246 349.339Z" fill="#FBB28F"/>
<path d="M311.222 557.615C370.177 557.615 417.97 554.029 417.97 549.605C417.97 545.182 370.177 541.595 311.222 541.595C252.266 541.595 204.473 545.182 204.473 549.605C204.473 554.029 252.266 557.615 311.222 557.615Z" fill="#E4D6BC"/>
<path d="M400.257 152.888L400.553 205.239C400.571 208.568 386.807 211.345 369.811 211.442C352.811 211.538 339.017 208.917 338.998 205.588L338.703 153.235L400.257 152.888Z" fill="#FFFBF4"/>
<path d="M369.519 159.107C386.518 159.012 400.284 156.236 400.265 152.906C400.246 149.577 386.451 146.956 369.452 147.051C352.453 147.146 338.688 149.922 338.707 153.251C338.725 156.58 352.521 159.202 369.519 159.107Z" fill="#ECE4DA"/>
<path d="M369.491 155.209C377.375 155.165 383.762 154.181 383.755 153.012C383.749 151.842 377.352 150.93 369.467 150.974C361.582 151.019 355.196 152.002 355.202 153.172C355.209 154.341 361.606 155.253 369.491 155.209Z" fill="#D2C3B3"/>
<path d="M319.429 407.198H329.707L336.252 328.176L328.898 255.696L301.123 253.096L317.779 335.719C313.074 354.81 317.007 379.244 319.429 407.198Z" fill="#002E49"/>
<path d="M319.133 406.58C319.133 406.58 318.513 407.443 318.513 409.231C318.513 411.015 318.688 417.176 318.688 417.176H348.771C348.771 417.176 348.88 412.494 345.07 409.99C341.259 407.491 335.404 409.94 329.807 406.012C329.806 406.013 328.307 407.381 319.133 406.58Z" fill="#7C4550"/>
<path d="M269.446 406.603C271.434 385.184 280.771 342.077 286.727 332.782L286.784 251.968L313.929 258.401L305.816 332.956L279.851 406.013C276.756 407.742 273.161 407.415 269.446 406.603Z" fill="#0D415D"/>
<path d="M269.446 406.603C269.446 406.603 268.76 407.515 268.76 409.299C268.76 411.086 268.76 417.176 268.76 417.176H298.815C298.815 417.176 298.924 412.494 295.114 409.99C291.305 407.491 285.448 409.94 279.851 406.012C279.851 406.013 278.621 407.404 269.446 406.603Z" fill="#7C4550"/>
<path d="M330.964 205.185L331.178 261.186C304.115 270.882 284.88 258.036 284.88 258.036L293.24 211.754L282.889 172.955L289.892 169.432L291.309 168.714H291.312L294.39 167.167L304.113 162.271L323.648 164.798L326.359 165.149L327.961 165.356L330.02 165.623C329.075 171.992 329.748 179.743 330.546 187.599C331.999 190.74 333.197 194.235 333.265 197.348C333.327 200.12 332.417 202.261 331.183 203.881C331.179 203.884 331.179 203.884 331.179 203.884C331.1 203.99 331.019 204.087 330.94 204.188L330.964 205.185Z" fill="#1D5B79"/>
<path d="M330.939 204.186L330.963 205.187C328.375 205.892 322.554 207.203 315.153 207.203C311.614 207.203 307.713 206.905 303.637 206.093C303.31 206.029 303.103 205.714 303.167 205.392C303.231 205.066 303.544 204.859 303.868 204.923C316.929 207.517 328.077 204.784 331.177 203.884C331.098 203.988 331.019 204.088 330.939 204.186Z" fill="#0D415D"/>
<path d="M323.914 124.338C323.914 124.338 327.275 127.464 327.681 131.362C328.088 135.262 326.298 138.189 326.298 138.189L323.914 124.338Z" fill="#002E49"/>
<path d="M322.581 128.008C316.01 131.483 303.484 130.677 303.484 130.677C293.712 133.33 298.3 155.245 298.3 155.245C295.131 154.755 292.941 152.225 291.433 149.103C290.703 154.713 289.602 159.987 287.939 163.495C282.567 174.847 271.128 168.403 271.128 168.403C285.135 168.719 282.28 153.628 273.641 142.837C265.003 132.048 272.194 114.264 281.735 113.792C291.132 113.325 292.78 122.087 292.825 122.347C292.828 122.35 292.828 122.352 292.828 122.352C293.33 123.451 293.511 124.314 293.511 124.314C296.568 120.668 311.864 114.153 318.818 115.779C325.602 117.362 328.02 125.131 322.581 128.008Z" fill="#002E49"/>
<path d="M293.51 124.315C293.51 124.315 289.381 127.903 288.142 134.787C287.28 134.956 286.474 135.042 285.721 135.051C286.011 132.899 287.426 125.03 292.827 122.355C293.329 123.45 293.51 124.315 293.51 124.315Z" fill="white"/>
<path d="M313.154 156.349L313.289 163.679L313.351 167.038C309.378 170.461 302.223 166.689 302.223 166.689L300.892 154.978C302.74 153.521 307.629 155.188 310.704 155.797C312.152 156.088 313.154 156.349 313.154 156.349Z" fill="#FBB28F"/>
<path d="M313.154 156.349L313.289 163.679C308.267 162.905 303.621 156.373 303.621 156.373L310.704 155.797C312.152 156.088 313.154 156.349 313.154 156.349Z" fill="#ED867A"/>
<path d="M321.344 157.909C312.749 162.579 301.898 157.323 298.532 155.448C297.859 155.071 297.483 154.832 297.483 154.832C297.483 154.832 297.017 153.07 296.545 150.475C296.041 147.716 295.521 144.015 295.531 140.493C295.545 136.283 296.313 132.325 298.773 130.546L324.155 125.795C324.155 125.795 324.242 126.105 324.386 126.665C325.567 131.286 330.538 152.912 321.344 157.909Z" fill="#FBB28F"/>
<path d="M298.531 155.448C297.858 155.071 297.482 154.832 297.482 154.832C297.482 154.832 297.016 153.07 296.544 150.475L298.632 151.157C298.632 151.158 300.257 153.553 298.531 155.448Z" fill="#002E49"/>
<path d="M299.538 142.371C299.538 142.371 296.135 138.627 293.67 141.539C290.953 144.749 294.183 153.521 300.6 152.207L299.538 142.371Z" fill="#FBB28F"/>
<path d="M324.384 126.669C321.902 127.786 311.115 132.35 303.145 131.398C303.145 131.398 303.236 132.049 303.335 133.064C303.335 133.064 303.338 133.082 303.34 133.116C303.346 133.155 303.352 133.208 303.359 133.278C303.512 134.619 304.309 141.972 303.781 146.08C303.199 150.619 304.259 154.283 306.119 154.453C306.119 154.453 304.655 155.206 303.173 152.483C301.687 149.762 300.62 143.807 300.62 143.807C299.633 142.578 298.05 140.126 295.529 140.448C295.54 136.238 296.31 132.328 298.771 130.549L324.15 125.798C324.152 125.797 324.241 126.106 324.384 126.669Z" fill="#002E49"/>
<path d="M338.799 171.948C334.877 168.725 330.02 165.621 330.02 165.621C328.019 173.358 329.75 178.4 329.75 178.4C329.75 178.4 334.236 183.548 338.799 185.446V171.948Z" fill="#0D415D"/>
<path d="M290.873 172.431C299.274 177.293 315.063 188.542 322.542 192.935C322.542 192.935 329.648 191.662 337.196 190.472C344.513 189.318 365.627 184.014 365.627 184.014L368.726 192.475C368.726 192.475 331.903 209.357 317.168 206.962C309.933 205.788 303.214 199.413 297.606 196.197C291.634 192.77 286.321 188.304 281.844 183.073C281.382 182.532 281.075 182.171 281.049 182.126C277.423 175.816 284.574 168.784 290.873 172.431Z" fill="#0D415D"/>
<path d="M365.627 184.015C365.627 184.015 366.345 180.488 367.811 178.237C369.273 175.983 371.753 174.744 373.78 173.168C375.807 171.591 376.484 173.621 375.018 175.534C373.556 177.448 371.753 179.25 372.652 179.475C373.555 179.701 382.516 174.066 385.331 174.404C388.148 174.742 380.085 179.363 380.085 179.363C380.085 179.363 388.195 175.648 389.547 176.66C390.899 177.672 382.34 181.503 382.34 181.503C382.34 181.503 388.613 178.787 389.113 180.202C389.471 181.216 384.478 183.567 382.002 184.657C382.002 184.657 388.248 182.139 388.071 183.374C387.847 184.951 376.511 191.513 368.725 192.476L365.627 184.015Z" fill="#FBB28F"/>
<path d="M307.593 421.208L275.317 547.405C275.035 548.513 275.703 549.411 276.813 549.411C277.922 549.411 279.051 548.513 279.334 547.405L311.608 421.208H307.593V421.208Z" fill="#FFFBF4"/>
<path d="M254.853 421.208L222.581 547.405C222.297 548.513 222.966 549.411 224.075 549.411C225.183 549.411 226.312 548.513 226.596 547.405L258.87 421.208H254.853V421.208Z" fill="#FFFBF4"/>
<path d="M249.461 450.342H302.149C303.258 450.342 304.387 449.444 304.67 448.335C304.954 447.224 304.284 446.326 303.176 446.326H250.488C249.379 446.326 248.25 447.224 247.967 448.335C247.683 449.444 248.352 450.342 249.461 450.342Z" fill="#FFFBF4"/>
<path d="M243.025 475.505H295.713C296.821 475.505 297.951 474.607 298.234 473.498C298.518 472.39 297.848 471.49 296.74 471.49H244.053C242.943 471.49 241.814 472.39 241.532 473.498C241.247 474.607 241.916 475.505 243.025 475.505Z" fill="#FFFBF4"/>
<path d="M236.59 500.602H289.277C290.387 500.602 291.515 499.673 291.798 498.527C292.083 497.384 291.412 496.455 290.304 496.455H237.618C236.508 496.455 235.379 497.384 235.097 498.527C234.811 499.673 235.482 500.602 236.59 500.602Z" fill="#FFFBF4"/>
<path d="M230.154 525.834H282.841C283.951 525.834 285.08 524.936 285.364 523.827C285.648 522.719 284.978 521.819 283.87 521.819H231.181C230.072 521.819 228.942 522.719 228.659 523.827C228.376 524.936 229.046 525.834 230.154 525.834Z" fill="#FFFBF4"/>
<path d="M308.583 421.208H304.566L336.842 547.405C337.125 548.513 338.255 549.411 339.363 549.411C340.472 549.411 341.139 548.513 340.857 547.405L308.583 421.208Z" fill="#FFFBF4"/>
<path d="M393.594 547.405L361.322 421.208H357.306L389.58 547.405C389.864 548.513 390.991 549.411 392.101 549.411C393.21 549.411 393.879 548.513 393.594 547.405Z" fill="#FFFBF4"/>
<path d="M362.531 425.178H252.202C251.564 425.178 251.045 424.66 251.045 424.021V418.336C251.045 417.697 251.564 417.176 252.202 417.176H362.531C363.169 417.176 363.687 417.696 363.687 418.336V424.021C363.687 424.661 363.169 425.178 362.531 425.178Z" fill="#FFFBF4"/>
<path d="M366.715 450.342H314.026C312.916 450.342 311.788 449.445 311.504 448.335C311.222 447.224 311.89 446.326 312.998 446.326H365.688C366.796 446.326 367.924 447.224 368.208 448.335C368.492 449.445 367.824 450.342 366.715 450.342Z" fill="#FFFBF4"/>
<path d="M373.149 475.505H320.461C319.352 475.505 318.224 474.607 317.94 473.499C317.657 472.39 318.325 471.49 319.434 471.49H372.122C373.232 471.49 374.359 472.39 374.644 473.499C374.928 474.607 374.258 475.505 373.149 475.505Z" fill="#FFFBF4"/>
<path d="M379.584 500.602H326.897C325.789 500.602 324.659 499.673 324.377 498.527C324.093 497.384 324.762 496.455 325.871 496.455H378.558C379.668 496.455 380.796 497.384 381.08 498.527C381.363 499.673 380.694 500.602 379.584 500.602Z" fill="#FFFBF4"/>
<path d="M386.02 525.834H333.334C332.225 525.834 331.095 524.936 330.813 523.827C330.529 522.719 331.198 521.819 332.307 521.819H384.993C386.103 521.819 387.231 522.719 387.515 523.827C387.799 524.936 387.129 525.834 386.02 525.834Z" fill="#FFFBF4"/>
<defs>
<linearGradient id="paint0_linear" x1="368.817" y1="107.079" x2="867.317" y2="605.579" gradientUnits="userSpaceOnUse">
<stop stop-color="white"/>
<stop offset="1" stop-color="white" stop-opacity="0"/>
</linearGradient>
</defs>
</svg>
