<svg width="198" height="61" viewBox="0 0 198 61" fill="none" xmlns="http://www.w3.org/2000/svg">
<path d="M22.9994 49H31.901L24.1897 35.6994C28.1747 33.681 30.8659 29.6442 30.8659 25.1934C30.8659 18.3102 25.3283 12.7726 18.4451 12.7726H3.95414V49H12.2347V37.0967H16.168L22.9994 49ZM12.2347 20.5356H18.4451C20.7223 20.5356 22.5854 22.554 22.5854 25.1934C22.5854 27.8328 20.7223 29.8512 18.4451 29.8512H12.2347V20.5356ZM122.567 49H130.33V11.22H122.567V49ZM151.174 22.3987C147.758 22.3987 145.171 23.6408 143.773 25.5557V12.7726H136.01V49H143.773V34.8713C143.773 31.1968 145.74 29.5407 148.586 29.5407C151.071 29.5407 153.089 31.0416 153.089 34.2503V49H160.852V33.1117C160.852 26.125 156.401 22.3987 151.174 22.3987ZM184.969 23.1233V25.5557C183.262 23.5891 180.726 22.3987 177.258 22.3987C170.478 22.3987 164.889 28.3504 164.889 36.0616C164.889 43.7729 170.478 49.7245 177.258 49.7245C180.726 49.7245 183.262 48.5342 184.969 46.5676V49H192.732V23.1233H184.969ZM178.811 42.3756C175.24 42.3756 172.652 39.9431 172.652 36.0616C172.652 32.1801 175.24 29.7477 178.811 29.7477C182.382 29.7477 184.969 32.1801 184.969 36.0616C184.969 39.9431 182.382 42.3756 178.811 42.3756Z" fill="#B7DC34"/>
<path d="M42.4708 39.1668H60.8433C61.0503 38.1835 61.1538 37.1485 61.1538 36.0616C61.1538 28.2469 55.5644 22.3987 48.0084 22.3987C39.8314 22.3987 34.242 28.3504 34.242 36.0616C34.242 43.7729 39.7279 49.7245 48.5777 49.7245C53.4943 49.7245 57.3241 47.9132 59.86 44.3939L53.6496 40.823C52.6145 41.9615 50.8031 42.7896 48.6812 42.7896C45.8348 42.7896 43.4541 41.858 42.4708 39.1668ZM42.3156 33.3705C43.0401 30.731 45.0067 29.2819 47.9567 29.2819C50.2856 29.2819 52.6145 30.3688 53.4425 33.3705H42.3156ZM77.725 49.7245C82.7968 49.7245 87.1959 47.0851 89.4213 43.0484L82.6416 39.1668C81.8135 40.9782 79.8987 42.065 77.6215 42.065C74.2575 42.065 71.7734 39.6326 71.7734 36.0616C71.7734 32.4907 74.2575 30.0582 77.6215 30.0582C79.8987 30.0582 81.7618 31.1451 82.6416 32.9564L89.4213 29.0232C87.1959 25.0382 82.7451 22.3987 77.725 22.3987C69.8585 22.3987 64.0104 28.3504 64.0104 36.0616C64.0104 43.7729 69.8585 49.7245 77.725 49.7245ZM104.461 49.7245C112.069 49.7245 118.176 43.7729 118.176 36.0616C118.176 28.3504 112.069 22.3987 104.461 22.3987C96.8532 22.3987 90.7463 28.3504 90.7463 36.0616C90.7463 43.7729 96.8532 49.7245 104.461 49.7245ZM104.461 42.1685C101.097 42.1685 98.5093 39.7361 98.5093 36.0616C98.5093 32.3871 101.097 29.9547 104.461 29.9547C107.825 29.9547 110.413 32.3871 110.413 36.0616C110.413 39.7361 107.825 42.1685 104.461 42.1685Z" fill="#7D9F21"/>
</svg>
